<svg id="Layer_1" xmlns="http://www.w3.org/2000/svg" viewBox="0 0 340.2 81.7"><style>.st0{display:none;fill:#EB6323;} .st1{fill:#FFFFFF;} .st2{fill:#FF6A26;} .st3{fill:#8CC1FF;}</style><path class="st0" d="M319.4 353.9c0 3.9-3.1 7-7 7H118.7c-3.8 0-7-3.1-7-7v-38.8c0-3.8 3.1-7 7-7h193.7c3.8 0 7 3.1 7 7v38.8z"/><path class="st1" d="M337.4 2.9c-1.7-1.8-4.1-2.9-6.8-2.9h-82.2c-2.7 0-5.1 1.2-6.8 3-.6.6-1.1 1.3-1.5 2.1-.4-.8-1-1.5-1.6-2.1-1.8-1.8-4.3-2.9-7-2.9H10C7.3.1 4.8 1.2 3 3 1.2 4.6 0 7.1 0 9.9v44.4c0 2.7 1.1 5.2 2.9 7 1.8 1.8 4.3 2.9 7 2.9h221.4c2.7 0 5.2-1.1 7-2.9.6-.6 1.1-1.3 1.6-2.1.4.8.9 1.5 1.5 2.1 1.7 1.8 4.2 2.9 6.8 2.9H286v17.5l15.7-17.5h12.9c1.3 0 2.6-.3 3.8-.8 1.2-.5 2.3-1.2 3.3-2.1l.1-.1 15.5-15.5c.9-.9 1.6-2 2.1-3.2s.8-2.5.8-3.8v-29c0-2.6-1.1-5-2.8-6.8z"/><path class="st2" d="M237.4 54.3c0 1.7-.7 3.1-1.8 4.2s-2.6 1.8-4.2 1.8H10c-1.7 0-3.1-.7-4.2-1.8S4 55.9 4 54.3V9.9c0-1.7.7-3.1 1.8-4.2S8.4 3.9 10 3.9h221.4c1.7 0 3.1.7 4.2 1.8s1.8 2.6 1.8 4.2v44.4z"/><path class="st3" d="M330.6 3.9c1.5 0 2.9.7 4 1.7 1.1 1.1 1.7 2.6 1.7 4.2v29c0 .5-.2 1.4-.5 2.3-.3.8-.8 1.6-1.2 2l-15.5 15.5c-.4.4-1.1.9-2 1.2-.8.3-1.7.5-2.3.5h-14.7l-10 11.1V60.2h-41.7c-1.5 0-2.9-.6-4-1.7-1-1.1-1.7-2.6-1.7-4.2V9.9c0-1.7.7-3.2 1.7-4.3 1.1-1.1 2.5-1.7 4-1.7h82.2z"/><path class="st1" d="M255.2 46.1c-1.1 0-2.1 0-2.1-.4V19.4h-4c-.3 0-.4-.8-.4-1.6 0-.9 0-1.4.4-1.6l5.1-1.9h3.2v31.4c0 .4-1.1.4-2.2.4M274.7 46.4c-5.4 0-9.5-2.6-9.5-8.5v-1.6c0-3.1 1.5-5.3 3.4-6.7-1.6-1.4-3-3.4-3-6.2v-1.2c0-5.9 3.9-8.5 9.2-8.5 5.4 0 9.5 2.6 9.5 8.5v1.2c0 2.7-1.6 4.9-3.3 6.2 1.9 1.4 3.6 3.6 3.6 6.7v1.6c.1 5.9-4.5 8.5-9.9 8.5m.2-29.2c-3.6 0-5.6 1.5-5.6 5.5 0 4.1 2.9 5.4 5.7 5.4 2.8 0 5.7-1.3 5.7-5.4 0-4.1-2.1-5.5-5.8-5.5m5.8 19.6c0-4.1-3-5.5-5.7-5.5-2.8 0-5.7 1.4-5.7 5.5v.6c0 4.1 2.9 5.5 5.7 5.5 2.8 0 5.7-1.4 5.7-5.5v-.6zM299.7 46.4c-5.4 0-9.5-2.6-9.5-8.5v-1.6c0-3.1 1.5-5.3 3.4-6.7-1.6-1.4-3-3.4-3-6.2v-1.2c0-5.9 3.9-8.5 9.2-8.5 5.4 0 9.5 2.6 9.5 8.5v1.2c0 2.7-1.6 4.9-3.3 6.2 1.9 1.4 3.6 3.6 3.6 6.7v1.6c.2 5.9-4.5 8.5-9.9 8.5m.3-29.2c-3.6 0-5.6 1.5-5.6 5.5 0 4.1 2.9 5.4 5.7 5.4 2.8 0 5.7-1.3 5.7-5.4-.1-4.1-2.2-5.5-5.8-5.5m5.7 19.6c0-4.1-3-5.5-5.7-5.5-2.8 0-5.7 1.4-5.7 5.5v.6c0 4.1 2.9 5.5 5.7 5.5 2.8 0 5.7-1.4 5.7-5.5v-.6zM321.5 46.1c-1.1 0-2.1 0-2.1-.4V19.4h-4c-.3 0-.4-.8-.4-1.6 0-.9 0-1.4.4-1.6l5.1-1.9h3.2v31.4c0 .4-1.1.4-2.2.4"/><g id="Opplysningen_1_"><path class="st1" d="M24.7 42.7c-4.9 0-8.9-1.9-8.9-6.7V24.6c0-4.8 4-6.7 8.9-6.7s8.9 1.9 8.9 6.7v11.3c0 4.9-4 6.8-8.9 6.8m5.6-18.1c0-3.4-3.1-4.1-5.6-4.1s-5.6.7-5.6 4.1v11.3c0 3.4 3.1 4.1 5.6 4.1s5.6-.7 5.6-4.1V24.6zM46 42.7c-1.8 0-3.2-.8-4.3-1.9v8.1c0 .3-.9.3-1.6.3-.7 0-1.6 0-1.6-.3v-24c0-.3.9-.3 1.6-.3.7 0 1.6 0 1.6.3v1.9c1.4-2.1 3.4-2.4 4.8-2.5 4.6-.2 6.7 2.7 6.7 7.1v4.2c0 4.4-2.5 7.1-7.2 7.1m3.9-12c0-3.3-1.9-4.1-3.7-4.1-2.4 0-4.4 2.7-4.4 4.4v4.7c0 3.4 2 4.8 4.3 4.8s3.9-1.6 3.9-4.7l-.1-5.1zM65 42.7c-1.8 0-3.2-.8-4.3-1.9v8.1c0 .3-.9.3-1.6.3-.7 0-1.6 0-1.6-.3v-24c0-.3.9-.3 1.6-.3.7 0 1.6 0 1.6.3v1.9c1.4-2.1 3.4-2.4 4.8-2.5 4.6-.2 6.7 2.7 6.7 7.1v4.2c-.1 4.4-2.5 7.1-7.2 7.1m3.9-12c0-3.3-1.9-4.1-3.7-4.1-2.4 0-4.4 2.7-4.4 4.4v4.7c0 3.4 2 4.8 4.3 4.8s3.9-1.6 3.9-4.7v-5.1h-.1zM82 42.3h-2c-2.7 0-3.4-1.2-3.4-3.6V18.5c0-.3.9-.3 1.6-.3s1.6 0 1.6.3v20.7c0 .6.3.7.8.7H82c.3 0 .4.6.4 1.2s-.1 1.2-.4 1.2M90.7 48.9c-.1.3-.7.3-1.5.3s-1.6 0-1.4-.3l2.4-6.7-6.4-17.3c-.1-.3.9-.3 1.7-.3.8 0 1.5 0 1.7.3L91.8 38c.1.3.1.6.1.6s0-.4.1-.6l4.6-13.1c.1-.3 1-.3 1.6-.3.7 0 1.8 0 1.6.3l-9.1 24zM107.7 42.7c-3.1 0-5.6-1.5-5.9-1.8-.3-.2.1-.8.3-1.3.3-.5.6-1.1.9-1 1.4.8 2.9 1.7 4.6 1.7 1.6 0 2.8-.4 3.3-2s-.4-2.8-1.8-3.4l-4.1-1.6c-2.1-.8-3.3-2.7-3-4.9.5-3.4 3.2-4.3 5.7-4.3 2.3 0 4.5.8 5.1 1.1.3.1.1.8-.1 1.4s-.5 1.2-.8 1.1c-.6-.2-2.3-1.2-4-1.2-1 0-2.4.1-2.9 1.4-.3.9 0 2.1 1.4 2.6l4.3 1.7c2.5 1 3.9 3.2 3.2 6.2-.5 2.9-3.1 4.3-6.2 4.3M130.7 42.4c-.7 0-1.6 0-1.6-.3V30.2c0-.9-.6-3.1-3.1-3.1-1.1 0-2.2.7-3.2 1.9l-1.5 1.9v11.2c0 .3-.9.3-1.6.3s-1.6 0-1.6-.3V24.8c0-.3.9-.3 1.6-.3s1.6 0 1.6.3v2.9s1.1-1.3 1.4-1.6c.5-.5 1.7-1.9 4.6-1.9 2.7 0 4.9 2.2 4.9 5.8v12.1c0 .3-.9.3-1.5.3M138.8 21.6c-.7 0-1.6-.2-1.6-.5v-2.5c0-.3 1-.4 1.7-.4s1.6.1 1.6.4v2.5c-.1.3-1.1.5-1.7.5m-.1 20.8c-.7 0-1.6 0-1.6-.3V24.8c0-.3.9-.3 1.6-.3.7 0 1.5 0 1.5.3v17.3c.1.3-.8.3-1.5.3M157.6 42.4c-.7 0-1.6 0-1.6-.3V30.2c0-.9-.6-3.1-3.1-3.1-1.1 0-2.2.7-3.2 1.9l-1.5 1.9v11.2c0 .3-.9.3-1.6.3-.7 0-1.6 0-1.6-.3V24.8c0-.3.9-.3 1.6-.3.7 0 1.6 0 1.6.3v2.9s1.1-1.3 1.4-1.6c.5-.5 1.7-1.9 4.6-1.9 2.7 0 4.9 2.2 4.9 5.8v12.1c0 .3-.9.3-1.5.3M175.6 47.9c-1.6 1.1-3.2 1.3-4.9 1.3-2.3 0-4.3-.8-5.6-1.8-.3-.2.1-.8.4-1.3.4-.6.7-.9 1-.7.4.3 1.9 1.5 4.3 1.5 1.3 0 4.2-.8 4.2-4.5v-2.3s-1.5 2.5-4.8 2.5c-4.3 0-6.6-2.2-6.6-6.6v-5.4c0-4.4 2.9-6.5 6.7-6.5 2 0 3.8.6 4.7 2.1v-1.4c0-.3.9-.4 1.6-.4.7 0 1.6.1 1.6.4v16.5c-.2 1.6-.2 4.8-2.6 6.6m-.7-17.6c0-.4-.6-3.8-4-3.8-2.3 0-4.1 1.3-4.1 4v6c0 2.2 1.5 3.8 3.9 3.8 2.3 0 4.3-2.3 4.3-4.7l-.1-5.3zM185.6 34.7v1.7c0 2.3 1.9 4 4.1 4 2.3 0 3.6-.6 5.5-1.6.3-.2.6.3.9.9.3.6.5 1.1.2 1.3-2.5 1.7-5 1.8-6.6 1.8-3.8 0-7.3-2.6-7.3-6.6v-5.3c0-4.1 3.5-6.5 7.4-6.5s7.2 1.6 7.2 6.5v4h-11.4v-.2zm8.2-4.1c0-2.4-1.9-4.1-4-4.1-2.6 0-4.3 1.7-4.3 4v1.8h8.3v-1.7zM213.6 42.4c-.7 0-1.6 0-1.6-.3V30.2c0-.9-.6-3.1-3.1-3.1-1.1 0-2.2.7-3.2 1.9l-1.5 1.9v11.2c0 .3-.9.3-1.6.3-.7 0-1.6 0-1.6-.3V24.8c0-.3.9-.3 1.6-.3.7 0 1.6 0 1.6.3v2.9s1.1-1.3 1.4-1.6c.5-.5 1.7-1.9 4.6-1.9 2.7 0 4.9 2.2 4.9 5.8v12.1c.1.3-.9.3-1.5.3M225.4 30.7c-3.8 0-6.9-3.1-6.9-6.9s3.1-6.9 6.9-6.9c3.8 0 6.8 3.1 6.8 6.9s-3 6.9-6.8 6.9m0-12.2c-3 0-5.4 2.4-5.4 5.4 0 2.9 2.4 5.4 5.4 5.4s5.3-2.4 5.3-5.4-2.4-5.4-5.3-5.4m2 8.8c-.3 0-.7 0-.8-.2l-1-2.1h-1v2c0 .2-.5.2-.7.2-.3 0-.7 0-.7-.2v-6.8h2.4c1.4 0 2.3.6 2.3 2.1v.5c0 .2 0 1.2-.8 1.8l1.1 2.4c.1.3-.5.3-.8.3m-.9-4.9c0-.6-.3-.7-.9-.7h-.9v1.9h1.1c.5 0 .7-.1.7-.7v-.5z"/></g></svg>