<svg xmlns="http://www.w3.org/2000/svg" version="1.1" xmlns:xlink="http://www.w3.org/1999/xlink" width="512" height="512" x="0" y="0" viewBox="0 0 24 24" style="enable-background:new 0 0 512 512" xml:space="preserve" class=""><g><path d="M9.499 24c.02 0-.02.002 0 0ZM19 11c1.654 0 3 1.346 3 3s-1.346 3-3 3-3-1.346-3-3 1.346-3 3-3Zm-2 3c0 1.103.897 2 2 2s2-.897 2-2-.897-2-2-2-2 .897-2 2ZM2 14c0-1.654 1.346-3 3-3s3 1.346 3 3-1.346 3-3 3-3-1.346-3-3Zm1 0c0 1.103.897 2 2 2s2-.897 2-2-.897-2-2-2-2 .897-2 2Zm2 5a5.017 5.017 0 0 0-4.997 4.444.5.5 0 0 0 .994.113C1.226 21.53 2.948 20.001 5 20.001s3.773 1.529 4.003 3.556a.5.5 0 0 0 .496.444c.274-.031.529-.282.498-.556A5.017 5.017 0 0 0 5 19.001Zm18.5 5c-.02.002.02 0 0 0Zm.497-.556C23.709 20.91 21.561 19 19 19s-4.709 1.91-4.997 4.444a.5.5 0 0 0 .994.113c.229-2.027 1.951-3.556 4.003-3.556s3.773 1.529 4.003 3.556a.501.501 0 0 0 .497.444c.274-.031.528-.282.497-.556ZM14.694 9l-2.02 1.746a1.026 1.026 0 0 1-1.355-.005L9.342 9h-.344c-1.654 0-3-1.346-3-3V3c0-1.654 1.346-3 3-3h6c1.654 0 3 1.346 3 3v3c0 1.654-1.346 3-3 3h-.306Zm-.187-1h.492c1.103 0 2-.897 2-2V3c0-1.103-.897-2-2-2h-6c-1.103 0-2 .897-2 2v3c0 1.103.897 2 2 2h.532c.122 0 .239.044.33.125l2.12 1.868 2.198-1.871A.504.504 0 0 1 14.506 8Z" fill="#555555" opacity="1" data-original="#000000"></path></g></svg>