<svg xmlns="http://www.w3.org/2000/svg" version="1.1" xmlns:xlink="http://www.w3.org/1999/xlink" width="512" height="512" x="0" y="0" viewBox="0 0 24 24" style="enable-background:new 0 0 512 512" xml:space="preserve" class=""><g><path d="M12 23.66c-.36 0-.72-.13-1-.38L7.1 20H3.5C1.57 20 0 18.43 0 16.5v-13C0 1.57 1.57 0 3.5 0h17C22.43 0 24 1.57 24 3.5v13c0 1.93-1.57 3.5-3.5 3.5h-3.53l-3.99 3.29c-.28.25-.63.37-.98.37ZM3.5 1A2.5 2.5 0 0 0 1 3.5v13A2.5 2.5 0 0 0 3.5 19h3.79c.12 0 .23.04.32.12l4.05 3.41c.2.18.48.18.67 0l4.14-3.42c.09-.07.2-.11.32-.11h3.71a2.5 2.5 0 0 0 2.5-2.5v-13A2.5 2.5 0 0 0 20.5 1h-17Zm5.24 15.02c-.21 0-.42-.07-.6-.2-.34-.25-.48-.7-.36-1.1l.94-3.01-2.37-1.93c-.33-.28-.44-.72-.3-1.11.14-.39.52-.65.94-.65h3l1.06-2.85c.14-.37.51-.62.94-.62s.8.24.94.62l1.06 2.85h3c.42 0 .8.26.94.66.14.39.03.83-.29 1.1l-2.37 1.93.98 2.98c.13.4 0 .85-.34 1.11-.34.26-.8.28-1.16.05L12 14.06l-2.71 1.81c-.17.11-.36.17-.56.17ZM7 9.01l2.62 2.13c.16.13.22.34.16.54l-1.04 3.34 2.98-1.99a.5.5 0 0 1 .55 0L15.3 15l-1.09-3.31c-.06-.2 0-.41.16-.54L17 9.01h-3.36c-.21.01-.4-.12-.47-.31l-1.18-3.18-1.18 3.18c-.07.2-.26.33-.47.33H6.99Z" fill="#555555" opacity="1" data-original="#000000" class=""></path></g></svg>