<svg xmlns="http://www.w3.org/2000/svg" version="1.1" xmlns:xlink="http://www.w3.org/1999/xlink" width="512" height="512" x="0" y="0" viewBox="0 0 48 48" style="enable-background:new 0 0 512 512" xml:space="preserve" class=""><g transform="matrix(1.2000000000000004,0,0,1.2000000000000004,-4.800050354003911,-4.799983501434337)"><path d="M12 43h24a5 5 0 0 0 5-5V22.46A6 6 0 0 0 43 18v-1a.81.81 0 0 0-.05-.31l-3-8.37A5 5 0 0 0 35.2 5H12.8a5 5 0 0 0-4.7 3.29l-3 8.37A.81.81 0 0 0 5 17v1a6 6 0 0 0 2 4.46V38a5 5 0 0 0 5 5zm17-2H19v-9a1 1 0 0 1 1-1h8a1 1 0 0 1 1 1zm8-19h-2a4 4 0 0 1-4-4h10a4 4 0 0 1-4 4zM35.2 7A3 3 0 0 1 38 9l2.55 7h-9.72L29.2 7zM20.83 7h6.34l1.63 9h-9.6zM29 18a4 4 0 0 1-4 4h-2a4 4 0 0 1-4-4zm-6 6h2a6 6 0 0 0 5-2.69A6 6 0 0 0 35 24h2a6 6 0 0 0 2-.35V38a3 3 0 0 1-3 3h-5v-9a3 3 0 0 0-3-3h-8a3 3 0 0 0-3 3v9h-5a3 3 0 0 1-3-3V23.65a6 6 0 0 0 2 .35h2a6 6 0 0 0 5-2.69A6 6 0 0 0 23 24zM10 9a3 3 0 0 1 2.8-2h6l-1.63 9H7.43zm7 9a4 4 0 0 1-4 4h-2a4 4 0 0 1-4-4z" fill="#555555" opacity="1" data-original="#000000" class=""></path></g></svg>